<svg width="130" height="31" xmlns="http://www.w3.org/2000/svg" xmlns:xlink="http://www.w3.org/1999/xlink"><defs><path id="a" d="M0 31h130V0H0z"/></defs><g fill="none" fill-rule="evenodd"><path fill="#000" d="M116.416 11l-.148.229-2.785 4.312-2.75-4.21-.217-.331H109v9h1.732v-5.388l2.785 4.195 2.751-4.305V20H118v-9zM98 18.278c-1.645 0-2.977-1.244-2.977-2.778s1.332-2.777 2.977-2.777c1.644 0 2.977 1.243 2.977 2.777S99.644 18.278 98 18.278M98 11c-2.762 0-5 2.015-5 4.5s2.238 4.5 5 4.5c2.761 0 5-2.015 5-4.5s-2.239-4.5-5-4.5m-15.45 7.278c-1.496 0-2.709-1.244-2.709-2.778s1.213-2.777 2.71-2.777c.839 0 1.59.391 2.086 1.006l1.27-1.267A4.56 4.56 0 0082.55 11C80.037 11 78 13.015 78 15.5s2.037 4.5 4.55 4.5A4.56 4.56 0 0086 18.433l-1.263-1.298a2.683 2.683 0 01-2.187 1.143m-23.446-3.626v1.778h2.327v1.065a2.658 2.658 0 01-1.88.783c-1.497 0-2.71-1.244-2.71-2.778s1.213-2.778 2.71-2.778c.84 0 1.59.392 2.086 1.007l1.27-1.267A4.561 4.561 0 0059.55 11C57.037 11 55 13.015 55 15.5s2.037 4.5 4.55 4.5A4.56 4.56 0 0063 18.433v-3.781h-3.896zM71 18a1 1 0 100 2 1 1 0 000-2m-27.738-1.03l1.238-3.161 1.238 3.16h-2.476zM46.926 20H49l-3.604-9h-1.793L40 20h2.074l.58-1.478h3.693L46.926 20zm-12.984-9l-1.57 5.451L30.837 11h-1.674l-1.535 5.451L26.058 11H24l2.773 9h1.675L30 14.755 31.552 20h1.675L36 11zm-18.47 3.376c-1.845-.622-.976-1.71.018-1.71.995 0 1.7.706 1.7.706l1.275-1.13c-.353-.483-1.203-1.148-2.686-1.235-1.482-.086-3.001.588-3.29 2.35-.29 1.762 1.681 2.626 2.694 2.885 1.012.26 1.862.57 1.862 1.122 0 .363-.289.976-1.555.916a3.05 3.05 0 01-2.224-1.122L12 18.47s.832 1.296 3.038 1.503c2.35.208 3.9-.792 3.96-2.557.068-2.016-1.682-2.418-3.526-3.04"/><mask id="b" fill="#fff"><use xlink:href="#a"/></mask><path d="M2.223 28.799h125.554V2.2H2.223v26.6zM0 31h130V0H0v31z" fill="#000" mask="url(#b)"/></g></svg>